<mxfile host="app.diagrams.net" modified="2024-03-16T12:00:04.200Z" agent="Mozilla/5.0 (Windows NT 10.0; Win64; x64) AppleWebKit/537.36 (KHTML, like Gecko) Chrome/122.0.0.0 Safari/537.36" etag="14x0bvI7tCu3fHqpbBi-" version="24.0.7" type="device">
  <diagram name="Page-1" id="aXqtJXnWVeouKpvvV6CV">
    <mxGraphModel dx="5550" dy="1491" grid="1" gridSize="10" guides="1" tooltips="1" connect="1" arrows="1" fold="1" page="1" pageScale="1" pageWidth="850" pageHeight="1100" math="0" shadow="0">
      <root>
        <mxCell id="0" />
        <mxCell id="1" parent="0" />
        <mxCell id="UaUYO7Ol20mAJ37oUn95-2" value="CATEGORY&lt;div&gt;&lt;br&gt;&lt;/div&gt;" style="text;strokeColor=none;align=center;fillColor=none;html=1;verticalAlign=middle;whiteSpace=wrap;rounded=0;" vertex="1" parent="1">
          <mxGeometry x="-1500" y="50" width="70" height="50" as="geometry" />
        </mxCell>
        <mxCell id="UaUYO7Ol20mAJ37oUn95-4" value="" style="ellipse;whiteSpace=wrap;html=1;" vertex="1" parent="1">
          <mxGeometry x="-1640" y="190" width="120" height="80" as="geometry" />
        </mxCell>
        <mxCell id="UaUYO7Ol20mAJ37oUn95-11" value="" style="rounded=1;whiteSpace=wrap;html=1;fillColor=#f5f5f5;fontColor=#333333;strokeColor=#666666;labelBorderColor=#000000;" vertex="1" parent="1">
          <mxGeometry x="-1530" y="40" width="120" height="60" as="geometry" />
        </mxCell>
        <mxCell id="UaUYO7Ol20mAJ37oUn95-25" value="" style="endArrow=classic;html=1;rounded=0;entryX=0;entryY=0.5;entryDx=0;entryDy=0;exitX=1;exitY=0;exitDx=0;exitDy=0;" edge="1" parent="1">
          <mxGeometry width="50" height="50" relative="1" as="geometry">
            <mxPoint x="-1440" y="430" as="sourcePoint" />
            <mxPoint x="-1110" y="380" as="targetPoint" />
          </mxGeometry>
        </mxCell>
        <mxCell id="UaUYO7Ol20mAJ37oUn95-26" value="" style="endArrow=none;html=1;rounded=0;entryX=0.25;entryY=1;entryDx=0;entryDy=0;exitX=1;exitY=0;exitDx=0;exitDy=0;" edge="1" parent="1">
          <mxGeometry width="50" height="50" relative="1" as="geometry">
            <mxPoint x="-912.2213419975988" y="154.47590326761474" as="sourcePoint" />
            <mxPoint x="-745" y="80" as="targetPoint" />
          </mxGeometry>
        </mxCell>
        <mxCell id="UaUYO7Ol20mAJ37oUn95-27" value="" style="endArrow=none;html=1;rounded=0;exitX=0.5;exitY=0;exitDx=0;exitDy=0;" edge="1" parent="1">
          <mxGeometry width="50" height="50" relative="1" as="geometry">
            <mxPoint x="-710" y="170" as="sourcePoint" />
            <mxPoint x="-735" y="90" as="targetPoint" />
          </mxGeometry>
        </mxCell>
        <mxCell id="UaUYO7Ol20mAJ37oUn95-28" value="" style="endArrow=none;html=1;rounded=0;entryX=0.392;entryY=1.033;entryDx=0;entryDy=0;entryPerimeter=0;" edge="1" parent="1">
          <mxGeometry width="50" height="50" relative="1" as="geometry">
            <mxPoint x="-490" y="160" as="sourcePoint" />
            <mxPoint x="-727.96" y="81.9799999999999" as="targetPoint" />
          </mxGeometry>
        </mxCell>
        <mxCell id="UaUYO7Ol20mAJ37oUn95-30" value="" style="endArrow=classic;html=1;rounded=0;entryX=0.5;entryY=1;entryDx=0;entryDy=0;exitX=0.856;exitY=-0.089;exitDx=0;exitDy=0;exitPerimeter=0;" edge="1" parent="1" target="UaUYO7Ol20mAJ37oUn95-41">
          <mxGeometry width="50" height="50" relative="1" as="geometry">
            <mxPoint x="-1457.28" y="424.65999999999997" as="sourcePoint" />
            <mxPoint x="-1430" y="350" as="targetPoint" />
          </mxGeometry>
        </mxCell>
        <mxCell id="UaUYO7Ol20mAJ37oUn95-31" value="" style="endArrow=none;html=1;rounded=0;entryX=0;entryY=1;entryDx=0;entryDy=0;exitX=1;exitY=0;exitDx=0;exitDy=0;" edge="1" parent="1" source="UaUYO7Ol20mAJ37oUn95-4" target="UaUYO7Ol20mAJ37oUn95-2">
          <mxGeometry width="50" height="50" relative="1" as="geometry">
            <mxPoint x="-1390" y="460" as="sourcePoint" />
            <mxPoint x="-1340" y="410" as="targetPoint" />
          </mxGeometry>
        </mxCell>
        <mxCell id="UaUYO7Ol20mAJ37oUn95-32" value="" style="endArrow=none;html=1;rounded=0;entryX=0;entryY=1;entryDx=0;entryDy=0;exitX=0.5;exitY=0;exitDx=0;exitDy=0;" edge="1" parent="1" target="UaUYO7Ol20mAJ37oUn95-2">
          <mxGeometry width="50" height="50" relative="1" as="geometry">
            <mxPoint x="-1310" y="170" as="sourcePoint" />
            <mxPoint x="-715" y="110" as="targetPoint" />
          </mxGeometry>
        </mxCell>
        <mxCell id="UaUYO7Ol20mAJ37oUn95-33" value="" style="endArrow=none;html=1;rounded=0;exitX=0.5;exitY=0;exitDx=0;exitDy=0;" edge="1" parent="1">
          <mxGeometry width="50" height="50" relative="1" as="geometry">
            <mxPoint x="-1430" y="270" as="sourcePoint" />
            <mxPoint x="-1500" y="110" as="targetPoint" />
          </mxGeometry>
        </mxCell>
        <mxCell id="UaUYO7Ol20mAJ37oUn95-34" value="" style="endArrow=none;html=1;rounded=0;entryX=0.25;entryY=1;entryDx=0;entryDy=0;exitX=1;exitY=0.5;exitDx=0;exitDy=0;" edge="1" parent="1">
          <mxGeometry width="50" height="50" relative="1" as="geometry">
            <mxPoint x="-1030" y="380" as="sourcePoint" />
            <mxPoint x="-745" y="80" as="targetPoint" />
          </mxGeometry>
        </mxCell>
        <mxCell id="UaUYO7Ol20mAJ37oUn95-41" value="HAS" style="shape=rhombus;perimeter=rhombusPerimeter;whiteSpace=wrap;html=1;align=center;" vertex="1" parent="1">
          <mxGeometry x="-1490" y="270" width="120" height="60" as="geometry" />
        </mxCell>
        <mxCell id="UaUYO7Ol20mAJ37oUn95-42" value="CATEGORY" style="rounded=1;arcSize=10;whiteSpace=wrap;html=1;align=center;" vertex="1" parent="1">
          <mxGeometry x="-1570" y="40" width="190" height="70" as="geometry" />
        </mxCell>
        <mxCell id="UaUYO7Ol20mAJ37oUn95-43" value="CATEGORY_ID" style="ellipse;whiteSpace=wrap;html=1;align=center;" vertex="1" parent="1">
          <mxGeometry x="-1640" y="190" width="130" height="80" as="geometry" />
        </mxCell>
        <mxCell id="UaUYO7Ol20mAJ37oUn95-44" value="" style="endArrow=none;html=1;rounded=0;dashed=1;dashPattern=1 2;" edge="1" parent="1">
          <mxGeometry relative="1" as="geometry">
            <mxPoint x="-1640" y="240" as="sourcePoint" />
            <mxPoint x="-1540" y="240" as="targetPoint" />
            <Array as="points">
              <mxPoint x="-1570" y="240" />
            </Array>
          </mxGeometry>
        </mxCell>
        <mxCell id="UaUYO7Ol20mAJ37oUn95-46" value="CATEGORY_NAME" style="ellipse;whiteSpace=wrap;html=1;align=center;" vertex="1" parent="1">
          <mxGeometry x="-1360" y="170" width="120" height="50" as="geometry" />
        </mxCell>
        <mxCell id="UaUYO7Ol20mAJ37oUn95-47" value="PRODUCTS" style="whiteSpace=wrap;html=1;align=center;" vertex="1" parent="1">
          <mxGeometry x="-1550" y="430" width="110" height="50" as="geometry" />
        </mxCell>
        <mxCell id="UaUYO7Ol20mAJ37oUn95-53" value="" style="endArrow=none;html=1;rounded=0;exitX=0.174;exitY=1.035;exitDx=0;exitDy=0;exitPerimeter=0;entryX=1;entryY=0;entryDx=0;entryDy=0;" edge="1" parent="1" source="UaUYO7Ol20mAJ37oUn95-47" target="UaUYO7Ol20mAJ37oUn95-55">
          <mxGeometry relative="1" as="geometry">
            <mxPoint x="-1470" y="430" as="sourcePoint" />
            <mxPoint x="-1590" y="560" as="targetPoint" />
          </mxGeometry>
        </mxCell>
        <mxCell id="UaUYO7Ol20mAJ37oUn95-54" value="1" style="resizable=0;html=1;whiteSpace=wrap;align=right;verticalAlign=bottom;" connectable="0" vertex="1" parent="UaUYO7Ol20mAJ37oUn95-53">
          <mxGeometry x="1" relative="1" as="geometry" />
        </mxCell>
        <mxCell id="UaUYO7Ol20mAJ37oUn95-55" value="PRODUCT_ID" style="ellipse;whiteSpace=wrap;html=1;align=center;" vertex="1" parent="1">
          <mxGeometry x="-1820" y="570" width="100" height="40" as="geometry" />
        </mxCell>
        <mxCell id="UaUYO7Ol20mAJ37oUn95-56" value="NAME" style="ellipse;whiteSpace=wrap;html=1;align=center;" vertex="1" parent="1">
          <mxGeometry x="-1660" y="580" width="100" height="40" as="geometry" />
        </mxCell>
        <mxCell id="UaUYO7Ol20mAJ37oUn95-57" value="DESCRIPTION" style="ellipse;whiteSpace=wrap;html=1;align=center;" vertex="1" parent="1">
          <mxGeometry x="-1400" y="580" width="100" height="40" as="geometry" />
        </mxCell>
        <mxCell id="UaUYO7Ol20mAJ37oUn95-58" value="PRICE" style="ellipse;whiteSpace=wrap;html=1;align=center;" vertex="1" parent="1">
          <mxGeometry x="-1520" y="580" width="100" height="40" as="geometry" />
        </mxCell>
        <mxCell id="UaUYO7Ol20mAJ37oUn95-59" value="" style="endArrow=none;html=1;rounded=0;exitX=0.25;exitY=1;exitDx=0;exitDy=0;entryX=0.5;entryY=0;entryDx=0;entryDy=0;" edge="1" parent="1" source="UaUYO7Ol20mAJ37oUn95-47" target="UaUYO7Ol20mAJ37oUn95-56">
          <mxGeometry relative="1" as="geometry">
            <mxPoint x="-1521" y="492" as="sourcePoint" />
            <mxPoint x="-1725" y="586" as="targetPoint" />
          </mxGeometry>
        </mxCell>
        <mxCell id="UaUYO7Ol20mAJ37oUn95-60" value="1" style="resizable=0;html=1;whiteSpace=wrap;align=right;verticalAlign=bottom;" connectable="0" vertex="1" parent="UaUYO7Ol20mAJ37oUn95-59">
          <mxGeometry x="1" relative="1" as="geometry" />
        </mxCell>
        <mxCell id="UaUYO7Ol20mAJ37oUn95-61" value="" style="endArrow=none;html=1;rounded=0;exitX=0.339;exitY=1.001;exitDx=0;exitDy=0;exitPerimeter=0;entryX=0.5;entryY=0;entryDx=0;entryDy=0;" edge="1" parent="1" source="UaUYO7Ol20mAJ37oUn95-47" target="UaUYO7Ol20mAJ37oUn95-58">
          <mxGeometry relative="1" as="geometry">
            <mxPoint x="-1511" y="502" as="sourcePoint" />
            <mxPoint x="-1470" y="570" as="targetPoint" />
          </mxGeometry>
        </mxCell>
        <mxCell id="UaUYO7Ol20mAJ37oUn95-62" value="1" style="resizable=0;html=1;whiteSpace=wrap;align=right;verticalAlign=bottom;" connectable="0" vertex="1" parent="UaUYO7Ol20mAJ37oUn95-61">
          <mxGeometry x="1" relative="1" as="geometry" />
        </mxCell>
        <mxCell id="UaUYO7Ol20mAJ37oUn95-63" value="" style="endArrow=none;html=1;rounded=0;exitX=0.615;exitY=1.035;exitDx=0;exitDy=0;exitPerimeter=0;entryX=0.263;entryY=-0.057;entryDx=0;entryDy=0;entryPerimeter=0;" edge="1" parent="1" source="UaUYO7Ol20mAJ37oUn95-47" target="UaUYO7Ol20mAJ37oUn95-57">
          <mxGeometry relative="1" as="geometry">
            <mxPoint x="-1501" y="512" as="sourcePoint" />
            <mxPoint x="-1705" y="606" as="targetPoint" />
          </mxGeometry>
        </mxCell>
        <mxCell id="UaUYO7Ol20mAJ37oUn95-64" value="1" style="resizable=0;html=1;whiteSpace=wrap;align=right;verticalAlign=bottom;" connectable="0" vertex="1" parent="UaUYO7Ol20mAJ37oUn95-63">
          <mxGeometry x="1" relative="1" as="geometry" />
        </mxCell>
        <mxCell id="UaUYO7Ol20mAJ37oUn95-65" value="HAS" style="shape=rhombus;perimeter=rhombusPerimeter;whiteSpace=wrap;html=1;align=center;" vertex="1" parent="1">
          <mxGeometry x="-1130" y="350" width="120" height="60" as="geometry" />
        </mxCell>
        <mxCell id="UaUYO7Ol20mAJ37oUn95-66" value="COUPON" style="whiteSpace=wrap;html=1;align=center;" vertex="1" parent="1">
          <mxGeometry x="-850" y="40" width="210" height="60" as="geometry" />
        </mxCell>
        <mxCell id="UaUYO7Ol20mAJ37oUn95-68" value="DISCOUINT" style="ellipse;whiteSpace=wrap;html=1;align=center;fontStyle=4;" vertex="1" parent="1">
          <mxGeometry x="-560" y="160" width="100" height="40" as="geometry" />
        </mxCell>
        <mxCell id="UaUYO7Ol20mAJ37oUn95-69" value="CODE" style="ellipse;whiteSpace=wrap;html=1;align=center;fontStyle=4;" vertex="1" parent="1">
          <mxGeometry x="-760" y="170" width="100" height="40" as="geometry" />
        </mxCell>
        <mxCell id="UaUYO7Ol20mAJ37oUn95-70" value="COUPON_ID" style="ellipse;whiteSpace=wrap;html=1;align=center;fontStyle=4;" vertex="1" parent="1">
          <mxGeometry x="-980" y="150" width="100" height="40" as="geometry" />
        </mxCell>
        <mxCell id="UaUYO7Ol20mAJ37oUn95-71" value="ORDER_ITEM" style="shape=ext;margin=3;double=1;whiteSpace=wrap;html=1;align=center;" vertex="1" parent="1">
          <mxGeometry x="-690" y="340" width="150" height="40" as="geometry" />
        </mxCell>
        <mxCell id="UaUYO7Ol20mAJ37oUn95-72" value="QUANTITY" style="ellipse;whiteSpace=wrap;html=1;align=center;fontStyle=4;" vertex="1" parent="1">
          <mxGeometry x="-760" y="440" width="100" height="40" as="geometry" />
        </mxCell>
        <mxCell id="UaUYO7Ol20mAJ37oUn95-73" value="APRICEtribute" style="ellipse;whiteSpace=wrap;html=1;align=center;fontStyle=4;" vertex="1" parent="1">
          <mxGeometry x="-540" y="440" width="100" height="40" as="geometry" />
        </mxCell>
        <mxCell id="UaUYO7Ol20mAJ37oUn95-74" value="HAS" style="shape=rhombus;double=1;perimeter=rhombusPerimeter;whiteSpace=wrap;html=1;align=center;" vertex="1" parent="1">
          <mxGeometry x="-650" y="500" width="120" height="60" as="geometry" />
        </mxCell>
        <mxCell id="UaUYO7Ol20mAJ37oUn95-75" value="HAS" style="shape=rhombus;double=1;perimeter=rhombusPerimeter;whiteSpace=wrap;html=1;align=center;" vertex="1" parent="1">
          <mxGeometry x="-1590" y="700" width="120" height="60" as="geometry" />
        </mxCell>
        <mxCell id="UaUYO7Ol20mAJ37oUn95-76" value="PICTURES" style="whiteSpace=wrap;html=1;align=center;" vertex="1" parent="1">
          <mxGeometry x="-1600" y="830" width="100" height="40" as="geometry" />
        </mxCell>
        <mxCell id="UaUYO7Ol20mAJ37oUn95-77" value="PICTURE" style="ellipse;whiteSpace=wrap;html=1;align=center;" vertex="1" parent="1">
          <mxGeometry x="-1500" y="920" width="100" height="40" as="geometry" />
        </mxCell>
        <mxCell id="UaUYO7Ol20mAJ37oUn95-78" value="PICTURE_ID" style="ellipse;whiteSpace=wrap;html=1;align=center;" vertex="1" parent="1">
          <mxGeometry x="-1750" y="910" width="100" height="40" as="geometry" />
        </mxCell>
        <mxCell id="UaUYO7Ol20mAJ37oUn95-79" value="Entity" style="whiteSpace=wrap;html=1;align=center;" vertex="1" parent="1">
          <mxGeometry x="-630" y="670" width="100" height="40" as="geometry" />
        </mxCell>
        <mxCell id="UaUYO7Ol20mAJ37oUn95-80" value="STATUS" style="ellipse;whiteSpace=wrap;html=1;align=center;" vertex="1" parent="1">
          <mxGeometry x="-460" y="760" width="100" height="40" as="geometry" />
        </mxCell>
        <mxCell id="UaUYO7Ol20mAJ37oUn95-81" value="ORDER_DATE" style="ellipse;whiteSpace=wrap;html=1;align=center;" vertex="1" parent="1">
          <mxGeometry x="-630" y="770" width="100" height="40" as="geometry" />
        </mxCell>
        <mxCell id="UaUYO7Ol20mAJ37oUn95-82" value="ORDER_ID" style="ellipse;whiteSpace=wrap;html=1;align=center;" vertex="1" parent="1">
          <mxGeometry x="-770" y="770" width="100" height="40" as="geometry" />
        </mxCell>
        <mxCell id="UaUYO7Ol20mAJ37oUn95-83" value="PLACES" style="shape=rhombus;perimeter=rhombusPerimeter;whiteSpace=wrap;html=1;align=center;" vertex="1" parent="1">
          <mxGeometry x="-1050" y="660" width="150" height="90" as="geometry" />
        </mxCell>
        <mxCell id="UaUYO7Ol20mAJ37oUn95-84" value="CUSTOMER" style="whiteSpace=wrap;html=1;align=center;" vertex="1" parent="1">
          <mxGeometry x="-650" y="860" width="100" height="40" as="geometry" />
        </mxCell>
        <mxCell id="UaUYO7Ol20mAJ37oUn95-85" value="ADDRESS" style="ellipse;whiteSpace=wrap;html=1;align=center;" vertex="1" parent="1">
          <mxGeometry x="-370" y="940" width="100" height="40" as="geometry" />
        </mxCell>
        <mxCell id="UaUYO7Ol20mAJ37oUn95-86" value="EMAIL" style="ellipse;whiteSpace=wrap;html=1;align=center;" vertex="1" parent="1">
          <mxGeometry x="-540" y="940" width="100" height="40" as="geometry" />
        </mxCell>
        <mxCell id="UaUYO7Ol20mAJ37oUn95-87" value="NAME" style="ellipse;whiteSpace=wrap;html=1;align=center;" vertex="1" parent="1">
          <mxGeometry x="-700" y="940" width="100" height="40" as="geometry" />
        </mxCell>
        <mxCell id="UaUYO7Ol20mAJ37oUn95-88" value="CUSTOMER_ID" style="ellipse;whiteSpace=wrap;html=1;align=center;" vertex="1" parent="1">
          <mxGeometry x="-830" y="940" width="100" height="40" as="geometry" />
        </mxCell>
        <mxCell id="UaUYO7Ol20mAJ37oUn95-89" value="MOBILE NO" style="ellipse;whiteSpace=wrap;html=1;align=center;" vertex="1" parent="1">
          <mxGeometry x="-425" y="860" width="100" height="40" as="geometry" />
        </mxCell>
        <mxCell id="UaUYO7Ol20mAJ37oUn95-94" value="GIVES" style="shape=rhombus;perimeter=rhombusPerimeter;whiteSpace=wrap;html=1;align=center;" vertex="1" parent="1">
          <mxGeometry x="-1030" y="870" width="120" height="60" as="geometry" />
        </mxCell>
        <mxCell id="UaUYO7Ol20mAJ37oUn95-95" value="RATING" style="whiteSpace=wrap;html=1;align=center;" vertex="1" parent="1">
          <mxGeometry x="-1000" y="980" width="100" height="40" as="geometry" />
        </mxCell>
        <mxCell id="UaUYO7Ol20mAJ37oUn95-96" value="RATING" style="ellipse;whiteSpace=wrap;html=1;align=center;" vertex="1" parent="1">
          <mxGeometry x="-910" y="1040" width="100" height="40" as="geometry" />
        </mxCell>
        <mxCell id="UaUYO7Ol20mAJ37oUn95-97" value="RATING_ID" style="ellipse;whiteSpace=wrap;html=1;align=center;" vertex="1" parent="1">
          <mxGeometry x="-1060" y="1040" width="100" height="40" as="geometry" />
        </mxCell>
        <mxCell id="UaUYO7Ol20mAJ37oUn95-98" value="GIVES" style="shape=rhombus;perimeter=rhombusPerimeter;whiteSpace=wrap;html=1;align=center;" vertex="1" parent="1">
          <mxGeometry x="-1250" y="840" width="120" height="60" as="geometry" />
        </mxCell>
        <mxCell id="UaUYO7Ol20mAJ37oUn95-99" value="FEEDBACK" style="whiteSpace=wrap;html=1;align=center;" vertex="1" parent="1">
          <mxGeometry x="-1260" y="940" width="100" height="40" as="geometry" />
        </mxCell>
        <mxCell id="UaUYO7Ol20mAJ37oUn95-101" value="FEEDBACK" style="ellipse;whiteSpace=wrap;html=1;align=center;" vertex="1" parent="1">
          <mxGeometry x="-1210" y="1000" width="100" height="40" as="geometry" />
        </mxCell>
        <mxCell id="UaUYO7Ol20mAJ37oUn95-102" value="FEEDBACK_ID" style="ellipse;whiteSpace=wrap;html=1;align=center;" vertex="1" parent="1">
          <mxGeometry x="-1390" y="1000" width="100" height="40" as="geometry" />
        </mxCell>
        <mxCell id="UaUYO7Ol20mAJ37oUn95-103" value="" style="endArrow=none;html=1;rounded=0;exitX=1;exitY=0.5;exitDx=0;exitDy=0;entryX=0;entryY=0.25;entryDx=0;entryDy=0;" edge="1" parent="1" source="UaUYO7Ol20mAJ37oUn95-98" target="UaUYO7Ol20mAJ37oUn95-84">
          <mxGeometry relative="1" as="geometry">
            <mxPoint x="-1140" y="840" as="sourcePoint" />
            <mxPoint x="-980" y="840" as="targetPoint" />
          </mxGeometry>
        </mxCell>
        <mxCell id="UaUYO7Ol20mAJ37oUn95-104" value="" style="endArrow=none;html=1;rounded=0;exitX=1;exitY=0.5;exitDx=0;exitDy=0;entryX=0;entryY=0.75;entryDx=0;entryDy=0;" edge="1" parent="1" source="UaUYO7Ol20mAJ37oUn95-94" target="UaUYO7Ol20mAJ37oUn95-84">
          <mxGeometry relative="1" as="geometry">
            <mxPoint x="-1140" y="840" as="sourcePoint" />
            <mxPoint x="-980" y="840" as="targetPoint" />
          </mxGeometry>
        </mxCell>
        <mxCell id="UaUYO7Ol20mAJ37oUn95-105" value="" style="endArrow=none;html=1;rounded=0;entryX=0;entryY=0.25;entryDx=0;entryDy=0;" edge="1" parent="1" source="UaUYO7Ol20mAJ37oUn95-83" target="UaUYO7Ol20mAJ37oUn95-84">
          <mxGeometry relative="1" as="geometry">
            <mxPoint x="-1140" y="840" as="sourcePoint" />
            <mxPoint x="-660" y="860" as="targetPoint" />
          </mxGeometry>
        </mxCell>
        <mxCell id="UaUYO7Ol20mAJ37oUn95-108" value="Attribute" style="ellipse;whiteSpace=wrap;html=1;align=center;" vertex="1" parent="1">
          <mxGeometry x="-550" y="1040" width="100" height="40" as="geometry" />
        </mxCell>
        <mxCell id="UaUYO7Ol20mAJ37oUn95-109" value="Attribute" style="ellipse;whiteSpace=wrap;html=1;align=center;" vertex="1" parent="1">
          <mxGeometry x="-140" y="1020" width="100" height="40" as="geometry" />
        </mxCell>
        <mxCell id="UaUYO7Ol20mAJ37oUn95-110" value="Attribute" style="ellipse;whiteSpace=wrap;html=1;align=center;fontStyle=4;" vertex="1" parent="1">
          <mxGeometry x="-410" y="1040" width="100" height="40" as="geometry" />
        </mxCell>
        <mxCell id="UaUYO7Ol20mAJ37oUn95-111" value="Attribute" style="ellipse;whiteSpace=wrap;html=1;align=center;fontStyle=4;" vertex="1" parent="1">
          <mxGeometry x="-280" y="1030" width="100" height="40" as="geometry" />
        </mxCell>
        <mxCell id="UaUYO7Ol20mAJ37oUn95-112" value="" style="endArrow=none;html=1;rounded=0;entryX=0.251;entryY=0.936;entryDx=0;entryDy=0;entryPerimeter=0;exitX=1;exitY=0;exitDx=0;exitDy=0;" edge="1" parent="1" source="UaUYO7Ol20mAJ37oUn95-108" target="UaUYO7Ol20mAJ37oUn95-85">
          <mxGeometry relative="1" as="geometry">
            <mxPoint x="-830" y="840" as="sourcePoint" />
            <mxPoint x="-670" y="840" as="targetPoint" />
          </mxGeometry>
        </mxCell>
        <mxCell id="UaUYO7Ol20mAJ37oUn95-113" value="" style="endArrow=none;html=1;rounded=0;entryX=0.354;entryY=1.05;entryDx=0;entryDy=0;entryPerimeter=0;exitX=0.5;exitY=0;exitDx=0;exitDy=0;" edge="1" parent="1" source="UaUYO7Ol20mAJ37oUn95-110" target="UaUYO7Ol20mAJ37oUn95-85">
          <mxGeometry relative="1" as="geometry">
            <mxPoint x="-455" y="1056" as="sourcePoint" />
            <mxPoint x="-335" y="987" as="targetPoint" />
          </mxGeometry>
        </mxCell>
        <mxCell id="UaUYO7Ol20mAJ37oUn95-114" value="" style="endArrow=none;html=1;rounded=0;entryX=0.251;entryY=0.936;entryDx=0;entryDy=0;entryPerimeter=0;exitX=0;exitY=0;exitDx=0;exitDy=0;" edge="1" parent="1" source="UaUYO7Ol20mAJ37oUn95-111">
          <mxGeometry relative="1" as="geometry">
            <mxPoint x="-260" y="1020" as="sourcePoint" />
            <mxPoint x="-290" y="980" as="targetPoint" />
          </mxGeometry>
        </mxCell>
        <mxCell id="UaUYO7Ol20mAJ37oUn95-115" value="" style="endArrow=none;html=1;rounded=0;entryX=0.251;entryY=0.936;entryDx=0;entryDy=0;entryPerimeter=0;exitX=0;exitY=0;exitDx=0;exitDy=0;" edge="1" parent="1" source="UaUYO7Ol20mAJ37oUn95-109">
          <mxGeometry relative="1" as="geometry">
            <mxPoint x="-390" y="1040" as="sourcePoint" />
            <mxPoint x="-270" y="971" as="targetPoint" />
          </mxGeometry>
        </mxCell>
        <mxCell id="UaUYO7Ol20mAJ37oUn95-116" value="" style="endArrow=none;html=1;rounded=0;exitX=0;exitY=0.5;exitDx=0;exitDy=0;entryX=1;entryY=0.5;entryDx=0;entryDy=0;" edge="1" parent="1" source="UaUYO7Ol20mAJ37oUn95-89" target="UaUYO7Ol20mAJ37oUn95-84">
          <mxGeometry relative="1" as="geometry">
            <mxPoint x="-830" y="840" as="sourcePoint" />
            <mxPoint x="-670" y="840" as="targetPoint" />
          </mxGeometry>
        </mxCell>
        <mxCell id="UaUYO7Ol20mAJ37oUn95-117" value="" style="endArrow=none;html=1;rounded=0;exitX=0;exitY=0;exitDx=0;exitDy=0;entryX=0.5;entryY=1;entryDx=0;entryDy=0;" edge="1" parent="1" source="UaUYO7Ol20mAJ37oUn95-86" target="UaUYO7Ol20mAJ37oUn95-84">
          <mxGeometry relative="1" as="geometry">
            <mxPoint x="-830" y="840" as="sourcePoint" />
            <mxPoint x="-670" y="840" as="targetPoint" />
          </mxGeometry>
        </mxCell>
        <mxCell id="UaUYO7Ol20mAJ37oUn95-118" value="" style="endArrow=none;html=1;rounded=0;exitX=0.749;exitY=0.079;exitDx=0;exitDy=0;exitPerimeter=0;entryX=0.137;entryY=1.021;entryDx=0;entryDy=0;entryPerimeter=0;" edge="1" parent="1" source="UaUYO7Ol20mAJ37oUn95-88" target="UaUYO7Ol20mAJ37oUn95-84">
          <mxGeometry relative="1" as="geometry">
            <mxPoint x="-830" y="840" as="sourcePoint" />
            <mxPoint x="-670" y="840" as="targetPoint" />
          </mxGeometry>
        </mxCell>
        <mxCell id="UaUYO7Ol20mAJ37oUn95-119" value="" style="endArrow=none;html=1;rounded=0;entryX=0.25;entryY=1;entryDx=0;entryDy=0;exitX=0.317;exitY=0.021;exitDx=0;exitDy=0;exitPerimeter=0;" edge="1" parent="1" source="UaUYO7Ol20mAJ37oUn95-87" target="UaUYO7Ol20mAJ37oUn95-84">
          <mxGeometry relative="1" as="geometry">
            <mxPoint x="-650" y="930" as="sourcePoint" />
            <mxPoint x="-670" y="840" as="targetPoint" />
          </mxGeometry>
        </mxCell>
        <mxCell id="UaUYO7Ol20mAJ37oUn95-120" value="" style="endArrow=none;html=1;rounded=0;exitX=0.046;exitY=0.25;exitDx=0;exitDy=0;exitPerimeter=0;entryX=1;entryY=1;entryDx=0;entryDy=0;" edge="1" parent="1" source="UaUYO7Ol20mAJ37oUn95-85" target="UaUYO7Ol20mAJ37oUn95-84">
          <mxGeometry relative="1" as="geometry">
            <mxPoint x="-830" y="840" as="sourcePoint" />
            <mxPoint x="-670" y="840" as="targetPoint" />
          </mxGeometry>
        </mxCell>
        <mxCell id="UaUYO7Ol20mAJ37oUn95-121" value="" style="endArrow=none;html=1;rounded=0;exitX=0.5;exitY=0;exitDx=0;exitDy=0;entryX=0.5;entryY=1;entryDx=0;entryDy=0;" edge="1" parent="1" source="UaUYO7Ol20mAJ37oUn95-77" target="UaUYO7Ol20mAJ37oUn95-76">
          <mxGeometry relative="1" as="geometry">
            <mxPoint x="-1020" y="830" as="sourcePoint" />
            <mxPoint x="-860" y="830" as="targetPoint" />
          </mxGeometry>
        </mxCell>
        <mxCell id="UaUYO7Ol20mAJ37oUn95-122" value="" style="endArrow=none;html=1;rounded=0;exitX=0.5;exitY=0;exitDx=0;exitDy=0;entryX=0.25;entryY=1;entryDx=0;entryDy=0;" edge="1" parent="1" source="UaUYO7Ol20mAJ37oUn95-78" target="UaUYO7Ol20mAJ37oUn95-76">
          <mxGeometry relative="1" as="geometry">
            <mxPoint x="-1020" y="830" as="sourcePoint" />
            <mxPoint x="-860" y="830" as="targetPoint" />
          </mxGeometry>
        </mxCell>
        <mxCell id="UaUYO7Ol20mAJ37oUn95-123" value="" style="endArrow=none;html=1;rounded=0;exitX=0.5;exitY=0;exitDx=0;exitDy=0;entryX=0.25;entryY=1;entryDx=0;entryDy=0;" edge="1" parent="1" source="UaUYO7Ol20mAJ37oUn95-102" target="UaUYO7Ol20mAJ37oUn95-99">
          <mxGeometry relative="1" as="geometry">
            <mxPoint x="-1440" y="930" as="sourcePoint" />
            <mxPoint x="-1540" y="880" as="targetPoint" />
          </mxGeometry>
        </mxCell>
        <mxCell id="UaUYO7Ol20mAJ37oUn95-124" value="" style="endArrow=none;html=1;rounded=0;exitX=0.5;exitY=0;exitDx=0;exitDy=0;entryX=0.5;entryY=1;entryDx=0;entryDy=0;" edge="1" parent="1" source="UaUYO7Ol20mAJ37oUn95-101" target="UaUYO7Ol20mAJ37oUn95-99">
          <mxGeometry relative="1" as="geometry">
            <mxPoint x="-1430" y="940" as="sourcePoint" />
            <mxPoint x="-1530" y="890" as="targetPoint" />
          </mxGeometry>
        </mxCell>
        <mxCell id="UaUYO7Ol20mAJ37oUn95-125" value="" style="endArrow=none;html=1;rounded=0;exitX=0.5;exitY=0;exitDx=0;exitDy=0;entryX=0.5;entryY=1;entryDx=0;entryDy=0;" edge="1" parent="1" source="UaUYO7Ol20mAJ37oUn95-95" target="UaUYO7Ol20mAJ37oUn95-94">
          <mxGeometry relative="1" as="geometry">
            <mxPoint x="-1020" y="830" as="sourcePoint" />
            <mxPoint x="-860" y="830" as="targetPoint" />
          </mxGeometry>
        </mxCell>
        <mxCell id="UaUYO7Ol20mAJ37oUn95-126" value="" style="endArrow=none;html=1;rounded=0;exitX=0.5;exitY=0;exitDx=0;exitDy=0;entryX=0.5;entryY=1;entryDx=0;entryDy=0;" edge="1" parent="1" source="UaUYO7Ol20mAJ37oUn95-99" target="UaUYO7Ol20mAJ37oUn95-98">
          <mxGeometry relative="1" as="geometry">
            <mxPoint x="-1020" y="830" as="sourcePoint" />
            <mxPoint x="-860" y="830" as="targetPoint" />
          </mxGeometry>
        </mxCell>
        <mxCell id="UaUYO7Ol20mAJ37oUn95-127" value="" style="endArrow=none;html=1;rounded=0;entryX=0.5;entryY=1;entryDx=0;entryDy=0;" edge="1" parent="1" source="UaUYO7Ol20mAJ37oUn95-96" target="UaUYO7Ol20mAJ37oUn95-95">
          <mxGeometry relative="1" as="geometry">
            <mxPoint x="-1020" y="830" as="sourcePoint" />
            <mxPoint x="-860" y="830" as="targetPoint" />
          </mxGeometry>
        </mxCell>
        <mxCell id="UaUYO7Ol20mAJ37oUn95-128" value="" style="endArrow=none;html=1;rounded=0;exitX=0.5;exitY=0;exitDx=0;exitDy=0;entryX=0.25;entryY=1;entryDx=0;entryDy=0;" edge="1" parent="1" source="UaUYO7Ol20mAJ37oUn95-97" target="UaUYO7Ol20mAJ37oUn95-95">
          <mxGeometry relative="1" as="geometry">
            <mxPoint x="-1020" y="830" as="sourcePoint" />
            <mxPoint x="-860" y="830" as="targetPoint" />
          </mxGeometry>
        </mxCell>
        <mxCell id="UaUYO7Ol20mAJ37oUn95-129" value="" style="endArrow=none;html=1;rounded=0;exitX=1;exitY=0.5;exitDx=0;exitDy=0;entryX=0;entryY=0.5;entryDx=0;entryDy=0;" edge="1" parent="1" source="UaUYO7Ol20mAJ37oUn95-83" target="UaUYO7Ol20mAJ37oUn95-79">
          <mxGeometry relative="1" as="geometry">
            <mxPoint x="-670" y="830" as="sourcePoint" />
            <mxPoint x="-510" y="830" as="targetPoint" />
          </mxGeometry>
        </mxCell>
        <mxCell id="UaUYO7Ol20mAJ37oUn95-130" value="" style="endArrow=none;html=1;rounded=0;exitX=0.372;exitY=0.007;exitDx=0;exitDy=0;exitPerimeter=0;entryX=0.5;entryY=1;entryDx=0;entryDy=0;" edge="1" parent="1" source="UaUYO7Ol20mAJ37oUn95-81" target="UaUYO7Ol20mAJ37oUn95-79">
          <mxGeometry relative="1" as="geometry">
            <mxPoint x="-670" y="830" as="sourcePoint" />
            <mxPoint x="-510" y="830" as="targetPoint" />
          </mxGeometry>
        </mxCell>
        <mxCell id="UaUYO7Ol20mAJ37oUn95-131" value="" style="endArrow=none;html=1;rounded=0;exitX=0.623;exitY=0.08;exitDx=0;exitDy=0;exitPerimeter=0;entryX=0.25;entryY=1;entryDx=0;entryDy=0;" edge="1" parent="1" source="UaUYO7Ol20mAJ37oUn95-82" target="UaUYO7Ol20mAJ37oUn95-79">
          <mxGeometry relative="1" as="geometry">
            <mxPoint x="-670" y="830" as="sourcePoint" />
            <mxPoint x="-510" y="830" as="targetPoint" />
          </mxGeometry>
        </mxCell>
        <mxCell id="UaUYO7Ol20mAJ37oUn95-132" value="" style="endArrow=none;html=1;rounded=0;entryX=0.75;entryY=1;entryDx=0;entryDy=0;exitX=0.33;exitY=-0.07;exitDx=0;exitDy=0;exitPerimeter=0;" edge="1" parent="1" source="UaUYO7Ol20mAJ37oUn95-80" target="UaUYO7Ol20mAJ37oUn95-79">
          <mxGeometry relative="1" as="geometry">
            <mxPoint x="-670" y="830" as="sourcePoint" />
            <mxPoint x="-510" y="830" as="targetPoint" />
          </mxGeometry>
        </mxCell>
        <mxCell id="UaUYO7Ol20mAJ37oUn95-133" value="" style="endArrow=none;html=1;rounded=0;exitX=0.5;exitY=0;exitDx=0;exitDy=0;entryX=0.25;entryY=1;entryDx=0;entryDy=0;" edge="1" parent="1" source="UaUYO7Ol20mAJ37oUn95-75" target="UaUYO7Ol20mAJ37oUn95-47">
          <mxGeometry relative="1" as="geometry">
            <mxPoint x="-910" y="620" as="sourcePoint" />
            <mxPoint x="-750" y="620" as="targetPoint" />
          </mxGeometry>
        </mxCell>
        <mxCell id="UaUYO7Ol20mAJ37oUn95-134" value="" style="endArrow=none;html=1;rounded=0;entryX=0.5;entryY=1;entryDx=0;entryDy=0;exitX=0.5;exitY=0;exitDx=0;exitDy=0;" edge="1" parent="1" source="UaUYO7Ol20mAJ37oUn95-79" target="UaUYO7Ol20mAJ37oUn95-74">
          <mxGeometry relative="1" as="geometry">
            <mxPoint x="-910" y="620" as="sourcePoint" />
            <mxPoint x="-750" y="620" as="targetPoint" />
          </mxGeometry>
        </mxCell>
        <mxCell id="UaUYO7Ol20mAJ37oUn95-135" value="" style="endArrow=none;html=1;rounded=0;entryX=0.25;entryY=1;entryDx=0;entryDy=0;" edge="1" parent="1" target="UaUYO7Ol20mAJ37oUn95-71">
          <mxGeometry relative="1" as="geometry">
            <mxPoint x="-700" y="440" as="sourcePoint" />
            <mxPoint x="-630" y="390" as="targetPoint" />
          </mxGeometry>
        </mxCell>
        <mxCell id="UaUYO7Ol20mAJ37oUn95-136" value="" style="endArrow=none;html=1;rounded=0;entryX=0.75;entryY=1;entryDx=0;entryDy=0;exitX=0.372;exitY=0.1;exitDx=0;exitDy=0;exitPerimeter=0;" edge="1" parent="1" source="UaUYO7Ol20mAJ37oUn95-73" target="UaUYO7Ol20mAJ37oUn95-71">
          <mxGeometry relative="1" as="geometry">
            <mxPoint x="-910" y="620" as="sourcePoint" />
            <mxPoint x="-750" y="620" as="targetPoint" />
          </mxGeometry>
        </mxCell>
        <mxCell id="UaUYO7Ol20mAJ37oUn95-137" value="" style="endArrow=none;html=1;rounded=0;entryX=0.629;entryY=1.04;entryDx=0;entryDy=0;entryPerimeter=0;" edge="1" parent="1" target="UaUYO7Ol20mAJ37oUn95-71">
          <mxGeometry relative="1" as="geometry">
            <mxPoint x="-590" y="490" as="sourcePoint" />
            <mxPoint x="-750" y="620" as="targetPoint" />
          </mxGeometry>
        </mxCell>
        <mxCell id="UaUYO7Ol20mAJ37oUn95-138" value="" style="endArrow=none;html=1;rounded=0;entryX=0.823;entryY=1.107;entryDx=0;entryDy=0;entryPerimeter=0;exitX=0.6;exitY=0;exitDx=0;exitDy=0;exitPerimeter=0;" edge="1" parent="1" source="UaUYO7Ol20mAJ37oUn95-71" target="UaUYO7Ol20mAJ37oUn95-66">
          <mxGeometry relative="1" as="geometry">
            <mxPoint x="-610" y="320" as="sourcePoint" />
            <mxPoint x="-750" y="420" as="targetPoint" />
          </mxGeometry>
        </mxCell>
        <mxCell id="UaUYO7Ol20mAJ37oUn95-139" value="" style="endArrow=none;html=1;rounded=0;entryX=0.5;entryY=1;entryDx=0;entryDy=0;" edge="1" parent="1" target="UaUYO7Ol20mAJ37oUn95-75">
          <mxGeometry relative="1" as="geometry">
            <mxPoint x="-1550" y="820" as="sourcePoint" />
            <mxPoint x="-1540" y="800" as="targetPoint" />
          </mxGeometry>
        </mxCell>
      </root>
    </mxGraphModel>
  </diagram>
</mxfile>
